<?xml version="1.0" encoding="UTF-8"?>
<svg version="1.1" xmlns="http://www.w3.org/2000/svg" width="500" height="500">
<path d="M0 0 C165 0 330 0 500 0 C500 165 500 330 500 500 C335 500 170 500 0 500 C0 335 0 170 0 0 Z " fill="#FEFEFE" transform="translate(0,0)"/>
<path d="M0 0 C1.6100097 1.2368632 3.1939358 2.50841948 4.75 3.8125 C5.53246094 4.45960937 6.31492187 5.10671875 7.12109375 5.7734375 C16.1118988 13.93035675 22.25624582 25.85094104 22.92897415 38.06085205 C22.99621279 42.11689529 22.99768559 46.16827654 22.97705078 50.22460938 C22.97648597 51.78241977 22.97680459 53.34023069 22.97793579 54.89804077 C22.97850758 59.10822371 22.96678149 63.31829177 22.95278788 67.5284481 C22.94025147 71.93534125 22.93910773 76.34223728 22.93673706 80.74914551 C22.93053083 89.08582308 22.91413163 97.42244794 22.89403808 105.75910234 C22.87165238 115.25365846 22.86067894 124.74821713 22.85064721 134.24279308 C22.82976463 153.76605856 22.79460535 173.28927503 22.75 192.8125 C2.37391985 192.90614267 -18.00211634 192.97657659 -38.37836742 193.01974869 C-47.84045311 193.04033138 -57.3024047 193.06836944 -66.7644043 193.11425781 C-75.01615138 193.15425751 -83.2678013 193.17996398 -91.51964265 193.18885398 C-95.88473536 193.1940466 -100.24955022 193.20616051 -104.61455345 193.23542023 C-108.73252864 193.26279748 -112.85011451 193.27090053 -116.96817207 193.26493073 C-118.47047423 193.26602108 -119.97279094 193.27384123 -121.47501373 193.2893219 C-137.89077625 193.45003081 -151.27682149 189.4097387 -163.5 178.125 C-173.88456216 167.07940822 -177.79017828 154.4122072 -177.74243164 139.58764648 C-177.26766736 125.49705678 -169.87735788 113.5692311 -159.9453125 103.95703125 C-148.66385808 94.98091752 -136.72605797 92.50144014 -122.66015625 92.6171875 C-121.36049423 92.6200174 -120.06083221 92.62284729 -118.7217865 92.62576294 C-115.28750745 92.63335345 -111.85340093 92.65296177 -108.41918945 92.6751709 C-104.90643649 92.69572879 -101.39365531 92.7047858 -97.88085938 92.71484375 C-91.00383594 92.73621264 -84.12692628 92.77029236 -77.25 92.8125 C-77.25888245 92.08524216 -77.26776489 91.35798431 -77.2769165 90.60868835 C-77.35750734 83.710335 -77.41818848 76.81205321 -77.45724869 69.9133482 C-77.47800619 66.36772549 -77.50610231 62.82249606 -77.55175781 59.27709961 C-77.60406955 55.18860384 -77.62304276 51.10051255 -77.640625 47.01171875 C-77.66127014 45.75606613 -77.68191528 44.50041351 -77.70318604 43.20671082 C-77.70668292 29.31271311 -72.50372233 16.86640507 -63.125 6.53515625 C-45.97710038 -9.21947652 -19.93598788 -13.12783276 0 0 Z " fill="#1F2B5B" transform="translate(327.25,104.1875)"/>
<path d="M0 0 C1.6100097 1.2368632 3.1939358 2.50841948 4.75 3.8125 C5.53246094 4.45960937 6.31492187 5.10671875 7.12109375 5.7734375 C15.99978475 13.82864113 22.21456334 25.68753706 22.92326355 37.76527405 C22.98077959 41.27228416 22.97493692 44.77390487 22.9453125 48.28125 C22.94329834 49.41336914 22.94128418 50.54548828 22.93920898 51.71191406 C22.92880122 55.91215101 22.90087891 60.11232988 22.875 64.3125 C22.83375 73.7175 22.7925 83.1225 22.75 92.8125 C-10.25 92.8125 -43.25 92.8125 -77.25 92.8125 C-77.3325 83.139375 -77.415 73.46625 -77.5 63.5 C-77.53641602 60.46772217 -77.57283203 57.43544434 -77.61035156 54.3112793 C-77.62204612 51.87809963 -77.63223612 49.44491206 -77.640625 47.01171875 C-77.66108887 45.77248657 -77.68155273 44.53325439 -77.70263672 43.25646973 C-77.70816541 29.33938135 -72.52118248 16.88563852 -63.125 6.53515625 C-45.97710038 -9.21947652 -19.93598788 -13.12783276 0 0 Z " fill="#3DBDEC" transform="translate(327.25,104.1875)"/>
<path d="M0 0 C1.15278442 0.00201416 2.30556885 0.00402832 3.49328613 0.00610352 C7.77811695 0.0165265 12.06289081 0.04444895 16.34765625 0.0703125 C30.73359375 0.1321875 30.73359375 0.1321875 45.41015625 0.1953125 C45.41015625 33.1953125 45.41015625 66.1953125 45.41015625 100.1953125 C36.10828125 100.2778125 26.80640625 100.3603125 17.22265625 100.4453125 C14.31300049 100.48172852 11.40334473 100.51814453 8.40551758 100.55566406 C6.05941502 100.56736335 3.71330424 100.57755222 1.3671875 100.5859375 C0.18137085 100.60640137 -1.0044458 100.62686523 -2.22619629 100.64794922 C-17.27131888 100.65413363 -29.77457554 95.72353996 -40.83984375 85.5078125 C-51.22440591 74.46222072 -55.13002203 61.7950197 -55.08227539 46.97045898 C-54.60751111 32.87986928 -47.21720163 20.9520436 -37.28515625 11.33984375 C-26.00372061 2.36374496 -14.0664671 -0.11624801 0 0 Z " fill="#3DBDEC" transform="translate(204.58984375,196.8046875)"/>
<path d="M0 0 C6.6 0 13.2 0 20 0 C20 6.6 20 13.2 20 20 C26.6 20 33.2 20 40 20 C40 26.6 40 33.2 40 40 C33.4 40 26.8 40 20 40 C20 46.6 20 53.2 20 60 C13.4 60 6.8 60 0 60 C0 53.4 0 46.8 0 40 C-6.6 40 -13.2 40 -20 40 C-20 33.4 -20 26.8 -20 20 C-13.4 20 -6.8 20 0 20 C0 13.4 0 6.8 0 0 Z " fill="#3CBBEA" transform="translate(290,217)"/>
<path d="M0 0 C0.66 0 1.32 0 2 0 C2 8.25 2 16.5 2 25 C1.34 25 0.68 25 0 25 C0 24.34 0 23.68 0 23 C-0.99 23.66 -1.98 24.32 -3 25 C-6.4375 25.4375 -6.4375 25.4375 -10 25 C-12.56268866 22.8972811 -13.7368733 21.3454726 -14.37890625 18.0625 C-14.59433074 14.39333447 -14.15688103 12.30121157 -12.4375 9 C-10 7 -10 7 -6.375 6.5625 C-3 7 -3 7 -1 9 C-0.67 6.03 -0.34 3.06 0 0 Z " fill="#53C4EE" transform="translate(251,331)"/>
<path d="M0 0 C5 1 5 1 6.1184082 2.67407227 C6.34359131 3.38104248 6.56877441 4.0880127 6.80078125 4.81640625 C7.18266602 5.96206055 7.18266602 5.96206055 7.57226562 7.13085938 C7.81654297 7.93330078 8.06082031 8.73574219 8.3125 9.5625 C8.57611328 10.36880859 8.83972656 11.17511719 9.11132812 12.00585938 C9.75962674 13.99790421 10.38228402 15.99826059 11 18 C13.86055964 13.70916054 14.97776578 8.96260819 16.48828125 4.0546875 C16.98714844 3.04664063 17.48601562 2.03859375 18 1 C19.65 0.67 21.3 0.34 23 0 C23 7.92 23 15.84 23 24 C22.01 24 21.02 24 20 24 C19.67 18.72 19.34 13.44 19 8 C17.02 13.28 15.04 18.56 13 24 C12.01 24 11.02 24 10 24 C8.02 18.72 6.04 13.44 4 8 C3.67 13.28 3.34 18.56 3 24 C2.01 24 1.02 24 0 24 C0 16.08 0 8.16 0 0 Z " fill="#52C4EE" transform="translate(260,332)"/>
<path d="M0 0 C5 1 5 1 6.1184082 2.67407227 C6.34359131 3.38104248 6.56877441 4.0880127 6.80078125 4.81640625 C7.18266602 5.96206055 7.18266602 5.96206055 7.57226562 7.13085938 C7.81654297 7.93330078 8.06082031 8.73574219 8.3125 9.5625 C8.57611328 10.36880859 8.83972656 11.17511719 9.11132812 12.00585938 C9.75962674 13.99790421 10.38228402 15.99826059 11 18 C13.86055964 13.70916054 14.97776578 8.96260819 16.48828125 4.0546875 C16.98714844 3.04664063 17.48601562 2.03859375 18 1 C19.65 0.67 21.3 0.34 23 0 C23 7.92 23 15.84 23 24 C22.01 24 21.02 24 20 24 C19.67 18.72 19.34 13.44 19 8 C17.02 13.28 15.04 18.56 13 24 C12.01 24 11.02 24 10 24 C8.02 18.72 6.04 13.44 4 8 C3.67 13.28 3.34 18.56 3 24 C2.01 24 1.02 24 0 24 C0 16.08 0 8.16 0 0 Z " fill="#52C4EE" transform="translate(190,332)"/>
<path d="M0 0 C3.4375 0.625 3.4375 0.625 5.875 2.8125 C7.4375 5.625 7.4375 5.625 7.4375 10.625 C3.1475 10.625 -1.1425 10.625 -5.5625 10.625 C-4.5725 12.275 -3.5825 13.925 -2.5625 15.625 C1.17040719 16.27825876 2.22447711 15.76701526 5.4375 13.625 C5.4375 14.945 5.4375 16.265 5.4375 17.625 C3.85827594 19.20422406 2.24306126 18.832659 0.0625 18.875 C-0.72898437 18.90078125 -1.52046875 18.9265625 -2.3359375 18.953125 C-5.08964035 18.54731616 -5.89521658 17.81394879 -7.5625 15.625 C-8.77510877 11.98717368 -8.95794552 9.44764001 -8.5625 5.625 C-5.94681879 1.89963585 -4.5021067 0.78984328 0 0 Z " fill="#56C5EE" transform="translate(315.5625,337.375)"/>
<path d="M0 0 C3.4375 0.625 3.4375 0.625 5.875 2.8125 C7.4375 5.625 7.4375 5.625 7.4375 10.625 C3.1475 10.625 -1.1425 10.625 -5.5625 10.625 C-4.5725 12.275 -3.5825 13.925 -2.5625 15.625 C1.17040719 16.27825876 2.22447711 15.76701526 5.4375 13.625 C5.4375 14.945 5.4375 16.265 5.4375 17.625 C3.85827594 19.20422406 2.24306126 18.832659 0.0625 18.875 C-0.72898437 18.90078125 -1.52046875 18.9265625 -2.3359375 18.953125 C-5.08964035 18.54731616 -5.89521658 17.81394879 -7.5625 15.625 C-8.77510877 11.98717368 -8.95794552 9.44764001 -8.5625 5.625 C-5.94681879 1.89963585 -4.5021067 0.78984328 0 0 Z " fill="#56C5EE" transform="translate(296.5625,337.375)"/>
<path d="M0 0 C3.4375 0.625 3.4375 0.625 5.875 2.8125 C7.4375 5.625 7.4375 5.625 7.4375 10.625 C3.1475 10.625 -1.1425 10.625 -5.5625 10.625 C-4.5725 12.275 -3.5825 13.925 -2.5625 15.625 C1.17040719 16.27825876 2.22447711 15.76701526 5.4375 13.625 C5.4375 14.945 5.4375 16.265 5.4375 17.625 C3.85827594 19.20422406 2.24306126 18.832659 0.0625 18.875 C-0.72898438 18.90078125 -1.52046875 18.9265625 -2.3359375 18.953125 C-5.08964035 18.54731616 -5.89521658 17.81394879 -7.5625 15.625 C-8.77510877 11.98717368 -8.95794552 9.44764001 -8.5625 5.625 C-5.94681879 1.89963585 -4.5021067 0.78984328 0 0 Z " fill="#56C5EE" transform="translate(226.5625,337.375)"/>
<path d="M0 0 C2.32749345 3.49124017 2.50299316 4.89222251 2 9 C0.3125 11.4375 0.3125 11.4375 -2 13 C-4.625 12.9375 -4.625 12.9375 -7 12 C-9.46324069 8.30513897 -9.38991688 6.36706908 -9 2 C-6.76088356 -1.98065145 -4.00922912 -1.19423846 0 0 Z " fill="#F4FBFD" transform="translate(249,341)"/>
<path d="M0 0 C0.99 0 1.98 0 3 0 C3 1.32 3 2.64 3 4 C4.98 4 6.96 4 9 4 C9 4.66 9 5.32 9 6 C7.02 6 5.04 6 3 6 C3.33 10.29 3.66 14.58 4 19 C5.65 19.33 7.3 19.66 9 20 C9 20.66 9 21.32 9 22 C5.625 22.125 5.625 22.125 2 22 C0 20 0 20 -0.1953125 16.7421875 C-0.17210937 15.46601563 -0.14890625 14.18984375 -0.125 12.875 C-0.10695313 11.59367187 -0.08890625 10.31234375 -0.0703125 8.9921875 C-0.04710937 8.00476563 -0.02390625 7.01734375 0 6 C-0.99 6 -1.98 6 -3 6 C-3 5.34 -3 4.68 -3 4 C-2.01 4 -1.02 4 0 4 C0 2.68 0 1.36 0 0 Z " fill="#59C6EE" transform="translate(328,334)"/>
<path d="M0 0 C0.66 0 1.32 0 2 0 C2 8.25 2 16.5 2 25 C1.34 25 0.68 25 0 25 C-0.60146571 21.84230503 -1.00135827 19.0346358 -0.875 15.8125 C-0.75889414 13.03168988 -0.75889414 13.03168988 -2.1875 11.1875 C-4.42031739 9.72461964 -6.37344067 9.35494045 -9 9 C-8.67 8.34 -8.34 7.68 -8 7 C-5.625 6.875 -5.625 6.875 -3 7 C-2.34 7.66 -1.68 8.32 -1 9 C-0.67 6.03 -0.34 3.06 0 0 Z " fill="#40BEEC" transform="translate(251,331)"/>
<path d="M0 0 C3.125 0.375 3.125 0.375 6 1 C6.33 2.65 6.66 4.3 7 6 C3.7 6 0.4 6 -3 6 C-2 2 -2 2 0 0 Z " fill="#DFF4FB" transform="translate(313,340)"/>
<path d="M0 0 C3.125 0.375 3.125 0.375 6 1 C6.33 2.65 6.66 4.3 7 6 C3.7 6 0.4 6 -3 6 C-2 2 -2 2 0 0 Z " fill="#DFF4FB" transform="translate(294,340)"/>
<path d="M0 0 C3.125 0.375 3.125 0.375 6 1 C6.33 2.65 6.66 4.3 7 6 C3.7 6 0.4 6 -3 6 C-2 2 -2 2 0 0 Z " fill="#DFF4FB" transform="translate(224,340)"/>
<path d="M0 0 C0.33 0 0.66 0 1 0 C1.33 3.63 1.66 7.26 2 11 C3.98 11.66 5.96 12.32 8 13 C8 13.66 8 14.32 8 15 C5.66705225 15.04241723 3.33297433 15.04092937 1 15 C0 14 0 14 -0.09765625 10.83984375 C-0.08025391 8.90818359 -0.08025391 8.90818359 -0.0625 6.9375 C-0.05347656 5.64714844 -0.04445313 4.35679687 -0.03515625 3.02734375 C-0.02355469 2.02832031 -0.01195312 1.02929688 0 0 Z " fill="#44BFEC" transform="translate(329,341)"/>
<path d="M0 0 C1.98 0.99 1.98 0.99 4 2 C4 3.98 4 5.96 4 8 C3.01 7.67 2.02 7.34 1 7 C0.67 4.69 0.34 2.38 0 0 Z " fill="#40BEEC" transform="translate(318,339)"/>
<path d="M0 0 C1.98 0.99 1.98 0.99 4 2 C4 3.98 4 5.96 4 8 C3.01 7.67 2.02 7.34 1 7 C0.67 4.69 0.34 2.38 0 0 Z " fill="#40BEEC" transform="translate(299,339)"/>
<path d="M0 0 C1.98 0.99 1.98 0.99 4 2 C4 3.98 4 5.96 4 8 C3.01 7.67 2.02 7.34 1 7 C0.67 4.69 0.34 2.38 0 0 Z " fill="#40BEEC" transform="translate(229,339)"/>
<path d="M0 0 C0.99 0.66 1.98 1.32 3 2 C2.1875 4.4375 2.1875 4.4375 1 7 C0.01 7.33 -0.98 7.66 -2 8 C-1.34 5.36 -0.68 2.72 0 0 Z " fill="#5BC7EF" transform="translate(276,338)"/>
<path d="M0 0 C0.99 0.66 1.98 1.32 3 2 C2.1875 4.4375 2.1875 4.4375 1 7 C0.01 7.33 -0.98 7.66 -2 8 C-1.34 5.36 -0.68 2.72 0 0 Z " fill="#5BC7EF" transform="translate(206,338)"/>
</svg>
