<?xml version="1.0" encoding="UTF-8"?>
<svg version="1.1" xmlns="http://www.w3.org/2000/svg" width="500" height="500">
<path d="M0 0 C165 0 330 0 500 0 C500 165 500 330 500 500 C335 500 170 500 0 500 C0 335 0 170 0 0 Z " fill="#FEFEFE" transform="translate(0,0)"/>
<path d="M0 0 C10.01185694 5.7629979 16.40937636 14.1186003 19.91592407 24.95675659 C20.96410511 29.21586608 20.89978983 33.37830807 20.82421875 37.7421875 C20.81997391 38.6838829 20.81572906 39.62557831 20.81135559 40.59580994 C20.79471216 43.57068843 20.75708772 46.54486139 20.71875 49.51953125 C20.7036846 51.55012035 20.68999946 53.58072018 20.67773438 55.61132812 C20.64485578 60.56016306 20.5931744 65.508478 20.53125 70.45703125 C22.44417847 70.42561035 22.44417847 70.42561035 24.39575195 70.39355469 C29.17232835 70.32060857 33.94885651 70.27503452 38.72583008 70.23730469 C40.78483386 70.21731279 42.84378177 70.19010997 44.90258789 70.15527344 C71.43213362 69.7179379 71.43213362 69.7179379 80.90625 78.70703125 C89.11017603 86.6639294 93.56023186 95.32543684 93.96875 106.83203125 C93.6737308 117.37896775 89.93221821 125.94263824 82.53125 133.45703125 C72.82886405 141.96731517 62.44851109 143.9303332 49.81762695 143.79760742 C48.14735695 143.79826454 48.14735695 143.79826454 46.44334412 143.79893494 C42.80188809 143.79686273 39.16090578 143.77360571 35.51953125 143.75 C32.97934724 143.74439848 30.43915998 143.74013101 27.89897156 143.73713684 C21.92102934 143.72689451 15.94328712 143.7033062 9.96542472 143.67308837 C3.15274737 143.63940753 -3.65993849 143.62302418 -10.47267854 143.60800207 C-24.47146109 143.57675195 -38.47009635 143.52407756 -52.46875 143.45703125 C-52.58591132 128.27910063 -52.67389794 113.10119095 -52.72781086 97.92290878 C-52.75351678 90.87423269 -52.78851981 83.82583869 -52.84594727 76.77734375 C-52.90138958 69.96921383 -52.9302114 63.16137654 -52.94313622 56.35303497 C-52.95234156 53.76161348 -52.97031724 51.17020714 -52.99740028 48.57891083 C-53.03394356 44.93605045 -53.03868453 41.29438272 -53.03637695 37.65136719 C-53.06334152 36.06100143 -53.06334152 36.06100143 -53.09085083 34.43850708 C-53.02073429 24.1417001 -49.67356677 14.7333676 -42.4921875 7.20703125 C-30.72274706 -2.97194427 -14.50391894 -6.18164015 0 0 Z " fill="#060D33" transform="translate(229.46875,122.54296875)"/>
<path d="M0 0 C10.01185694 5.7629979 16.40937636 14.1186003 19.91592407 24.95675659 C20.96404933 29.2156394 20.90012029 33.37834721 20.82421875 37.7421875 C20.82119751 38.57842651 20.81817627 39.41466553 20.81506348 40.27624512 C20.79953636 43.35746863 20.75765434 46.43851423 20.71875 49.51953125 C20.656875 56.42890625 20.595 63.33828125 20.53125 70.45703125 C-3.55875 70.45703125 -27.64875 70.45703125 -52.46875 70.45703125 C-52.571875 63.27953125 -52.675 56.10203125 -52.78125 48.70703125 C-52.82677002 46.46696289 -52.87229004 44.22689453 -52.91918945 41.91894531 C-53.07920775 28.44268624 -52.27381061 17.45851399 -42.4921875 7.20703125 C-30.72274706 -2.97194427 -14.50391894 -6.18164015 0 0 Z " fill="#10B5F0" transform="translate(229.46875,122.54296875)"/>
<path d="M0 0 C10.5496875 -0.12375 10.5496875 -0.12375 21.3125 -0.25 C24.607948 -0.30462402 24.607948 -0.30462402 27.9699707 -0.36035156 C42.11620804 -0.49971322 52.27689295 0.39573452 62.83984375 10.640625 C70.58229028 19.09711271 73.6634284 28.29805982 73.34375 39.7265625 C72.26251673 50.02285209 67.429134 58.23792683 59.7109375 65.0078125 C47.55640137 74.22982563 34.37546865 73.38243964 19.8125 73.1875 C13.274375 73.125625 6.73625 73.06375 0 73 C0 48.91 0 24.82 0 0 Z " fill="#10B5F1" transform="translate(250,193)"/>
<path d="M0 0 C2.701875 -0.103125 5.40375 -0.20625 8.1875 -0.3125 C9.02949951 -0.35802002 9.87149902 -0.40354004 10.73901367 -0.45043945 C14.99418668 -0.5288362 16.53610394 -0.37172325 19.98828125 2.39453125 C22.90980095 6.17832472 23.4703167 8.2027697 23 13 C21.125 15.875 21.125 15.875 19 18 C18.34 18 17.68 18 17 18 C19.15078722 21.85658398 21.23455278 25.54319097 24 29 C26.87349359 22.76546953 29.3740906 16.46141797 31.6875 10 C32.29304242 8.31159031 32.90098342 6.62403825 33.51171875 4.9375 C33.90556763 3.83728516 33.90556763 3.83728516 34.30737305 2.71484375 C35 1 35 1 36 0 C38.67058851 -0.14115161 41.32432238 -0.04247107 44 0 C45.46573273 3.83054429 46.92123003 7.66490131 48.375 11.5 C48.7875 12.57765625 49.2 13.6553125 49.625 14.765625 C51.78076112 20.46796087 53.68474866 26.0452357 55 32 C52.69 32 50.38 32 48 32 C47.34 30.02 46.68 28.04 46 26 C41.71 26 37.42 26 33 26 C32.67 27.98 32.34 29.96 32 32 C26.81804455 32.66024915 22.15708979 32.98786684 17 32 C14.30851652 29.34715026 12.91257039 26.90468445 11.296875 23.50390625 C10.20345868 20.68061982 10.20345868 20.68061982 7 20 C7 23.96 7 27.92 7 32 C4.69 32 2.38 32 0 32 C0 21.44 0 10.88 0 0 Z " fill="#0D1237" transform="translate(331,310)"/>
<path d="M0 0 C4.95 0 9.9 0 15 0 C15 4.62 15 9.24 15 14 C19.62 14 24.24 14 29 14 C29 18.62 29 23.24 29 28 C24.38 28 19.76 28 15 28 C15 32.95 15 37.9 15 43 C10.05 43 5.1 43 0 43 C0 38.05 0 33.1 0 28 C-4.62 28 -9.24 28 -14 28 C-14 23.38 -14 18.76 -14 14 C-9.38 14 -4.76 14 0 14 C0 9.38 0 4.76 0 0 Z " fill="#0FB4EF" transform="translate(206,208)"/>
<path d="M0 0 C5.67458978 1.92721917 9.32050871 5.64101742 12 11 C12.59057744 16.67862925 12.29370905 21.16922672 9 26 C4.80367308 30.23072304 1.15617934 32.13829891 -4.8125 32.3125 C-9.70183288 32.23432753 -12.32523241 31.41838845 -16 28 C-19.0665028 24.32345022 -21.28853248 20.8027853 -21.5625 15.9375 C-20.73040356 10.1128249 -18.81962663 6.64632886 -14.375 2.625 C-9.65091155 -0.60727105 -5.61835204 -0.46747459 0 0 Z " fill="#0F1438" transform="translate(180,310)"/>
<path d="M0 0 C2.701875 -0.0825 5.40375 -0.165 8.1875 -0.25 C9.02949951 -0.28641602 9.87149902 -0.32283203 10.73901367 -0.36035156 C14.67603679 -0.41837972 16.56872297 -0.27286024 19.98828125 1.890625 C22.42164876 4.44211714 22.94409851 5.35713292 23.25 8.875 C22.97637294 12.29533822 22.28639008 13.52307741 20 16 C20.66 16.53625 21.32 17.0725 22 17.625 C24 20 24 20 24.5 22.9375 C23.88644396 26.69553075 22.67185576 28.32814424 20 31 C17.29283758 31.90238747 15.76223232 32.11851302 12.98828125 32.09765625 C11.96408081 32.09390991 11.96408081 32.09390991 10.91918945 32.09008789 C9.62887817 32.07643188 9.62887817 32.07643188 8.3125 32.0625 C4.1978125 32.0315625 4.1978125 32.0315625 0 32 C0 21.44 0 10.88 0 0 Z " fill="#0B1035" transform="translate(118,310)"/>
<path d="M0 0 C16 0 16 0 21 3 C23.37040308 5.37040308 23.34465793 6.06302753 23.4375 9.3125 C23.32630479 12.75955164 23.00633514 13.98929579 21.1875 17.0625 C16.38336838 19.98265844 12.56347225 19.33514893 7 19 C7 23.29 7 27.58 7 32 C4.69 32 2.38 32 0 32 C0 21.44 0 10.88 0 0 Z " fill="#0F1438" transform="translate(222,310)"/>
<path d="M0 0 C3.04948582 1.56302097 4.65400071 2.98126087 6.2421875 6.01953125 C6.4278125 6.76203125 6.6134375 7.50453125 6.8046875 8.26953125 C4.0546875 9.45703125 4.0546875 9.45703125 0.8046875 10.26953125 C0.2065625 9.81578125 -0.3915625 9.36203125 -1.0078125 8.89453125 C-4.02117645 6.65603232 -6.41088289 6.90815954 -10.07421875 6.87109375 C-12.74998055 7.37372304 -13.62516934 8.05951784 -15.1953125 10.26953125 C-15.94122269 14.24040609 -15.64167798 18.04946559 -14.2578125 21.83203125 C-10.85563099 24.20324867 -7.1981004 23.91961907 -3.1953125 23.26953125 C-1.85740609 22.27565791 -0.52313128 21.27684205 0.8046875 20.26953125 C4.0546875 21.08203125 4.0546875 21.08203125 6.8046875 22.26953125 C5.89120282 25.92346997 4.86704921 27.22043799 1.8671875 29.58203125 C-2.96157826 32.04177832 -7.91673351 32.16223211 -13.1953125 31.26953125 C-17.2256355 29.55372345 -19.55755756 27.13358633 -22.1328125 23.64453125 C-24.06083614 17.52022087 -24.34067442 11.69241223 -21.5703125 5.83203125 C-15.42932031 -0.79377612 -8.77747188 -2.92061787 0 0 Z " fill="#0F1438" transform="translate(296.1953125,310.73046875)"/>
<path d="M0 0 C6.27 0 12.54 0 19 0 C19 1.98 19 3.96 19 6 C15.04 6 11.08 6 7 6 C7 8.31 7 10.62 7 13 C10.63 13 14.26 13 18 13 C18 14.98 18 16.96 18 19 C14.37 19 10.74 19 7 19 C7 21.31 7 23.62 7 26 C10.96 26 14.92 26 19 26 C19 27.98 19 29.96 19 32 C12.73 32 6.46 32 0 32 C0 21.44 0 10.88 0 0 Z " fill="#090E33" transform="translate(249,310)"/>
<path d="M0 0 C3.0625 1.5 3.0625 1.5 5 3 C3.56 6.72 3.56 6.72 1.25 7.875 C-1.82030146 8.0455723 -4.15840374 7.09788947 -7 6 C-7 7.65 -7 9.3 -7 11 C-6.40832031 11.15855469 -5.81664062 11.31710937 -5.20703125 11.48046875 C-0.04049646 13.00598718 3.93454714 14.29963894 7 19 C7.52286802 23.56692533 6.8370811 26.89289274 4.0625 30.5625 C-0.34733809 32.632424 -4.21268861 32.77239369 -9 32 C-14.61971831 29.14084507 -14.61971831 29.14084507 -16 25 C-14.68 24.01 -13.36 23.02 -12 22 C-11.46375 22.309375 -10.9275 22.61875 -10.375 22.9375 C-7.6015043 24.17827439 -4.99957163 24.5909675 -2 25 C-1.67 23.68 -1.34 22.36 -1 21 C-1.84304687 20.60167969 -2.68609375 20.20335937 -3.5546875 19.79296875 C-4.65039062 19.26316406 -5.74609375 18.73335938 -6.875 18.1875 C-7.96554688 17.66542969 -9.05609375 17.14335937 -10.1796875 16.60546875 C-13 15 -13 15 -15 12 C-15.50835292 8.1026276 -15.32962183 6.49443274 -13.125 3.1875 C-9.24967259 -0.80180763 -5.32087211 -0.55043505 0 0 Z " fill="#0F1438" transform="translate(211,310)"/>
<path d="M0 0 C7.59 0 15.18 0 23 0 C23 1.98 23 3.96 23 6 C20.36 6 17.72 6 15 6 C15 14.58 15 23.16 15 32 C12.69 32 10.38 32 8 32 C8 23.42 8 14.84 8 6 C5.36 6 2.72 6 0 6 C0 4.02 0 2.04 0 0 Z " fill="#090E33" transform="translate(305,310)"/>
<path d="M0 0 C3.64575305 0.870234 5.12960019 2.43704001 7.16015625 5.515625 C7.73182988 9.51734043 7.52954253 11.74327186 5.78515625 15.390625 C3.97298312 17.76038986 3.08755476 18.37168692 0.171875 18.82421875 C-5.86883867 19.15924993 -5.86883867 19.15924993 -8.54296875 17.38671875 C-10.76369819 14.94264009 -11.79627504 12.72475479 -12.46484375 9.515625 C-10.94878038 2.23852083 -7.15793315 -0.52579142 0 0 Z " fill="#F8F8F9" transform="translate(177.83984375,316.484375)"/>
<path d="M0 0 C2.31 0 4.62 0 7 0 C7 10.56 7 21.12 7 32 C4.69 32 2.38 32 0 32 C0 21.44 0 10.88 0 0 Z " fill="#101539" transform="translate(147,310)"/>
<path d="M0 0 C3.375 -0.125 3.375 -0.125 7 0 C7.66 0.66 8.32 1.32 9 2 C8.44444444 6.55555556 8.44444444 6.55555556 7 8 C4.66702567 8.04092937 2.33294775 8.04241723 0 8 C0 5.36 0 2.72 0 0 Z " fill="#EEEEF1" transform="translate(338,316)"/>
<path d="M0 0 C6.0546875 -0.1953125 6.0546875 -0.1953125 8 0 C8.66 0.66 9.32 1.32 10 2 C9.46428571 5.53571429 9.46428571 5.53571429 8 7 C5.32941149 7.14115161 2.67567762 7.04247107 0 7 C0 4.69 0 2.38 0 0 Z " fill="#F2F2F4" transform="translate(125,329)"/>
<path d="M0 0 C6.0546875 -0.1953125 6.0546875 -0.1953125 8 0 C8.66 0.66 9.32 1.32 10 2 C9.46428571 5.53571429 9.46428571 5.53571429 8 7 C5.32941149 7.14115161 2.67567762 7.04247107 0 7 C0 4.69 0 2.38 0 0 Z " fill="#E7E7EB" transform="translate(229,316)"/>
<path d="M0 0 C1.98 0 3.96 0 6 0 C6.66 0.66 7.32 1.32 8 2 C7.70241581 4.3381615 7.36760731 6.67182036 7 9 C7.33 9.99 7.66 10.98 8 12 C7.34 12 6.68 12 6 12 C5.731875 11.360625 5.46375 10.72125 5.1875 10.0625 C4.11332248 7.66868314 4.11332248 7.66868314 1 7 C1 8.65 1 10.3 1 12 C0.67 12 0.34 12 0 12 C0 8.04 0 4.08 0 0 Z " fill="#3AC2F3" transform="translate(172,364)"/>
<path d="M0 0 C3.375 -0.125 3.375 -0.125 7 0 C7.66 0.66 8.32 1.32 9 2 C8.46428571 5.53571429 8.46428571 5.53571429 7 7 C4.66702567 7.04092937 2.33294775 7.04241723 0 7 C0 4.69 0 2.38 0 0 Z " fill="#F0F0F2" transform="translate(125,316)"/>
<path d="M0 0 C3 1 3 1 3.984375 2.7421875 C4.23703125 3.44601562 4.4896875 4.14984375 4.75 4.875 C5.01296875 5.57367188 5.2759375 6.27234375 5.546875 6.9921875 C6 9 6 9 5 12 C4.67 11.01 4.34 10.02 4 9 C1.52733235 9.34444881 1.52733235 9.34444881 -1 10 C-1.33 10.66 -1.66 11.32 -2 12 C-2.66 11.67 -3.32 11.34 -4 11 C-2.68 7.37 -1.36 3.74 0 0 Z " fill="#85D9F7" transform="translate(231,364)"/>
<path d="M0 0 C2 1 2 1 3.125 3.75 C3.91973395 6.70186896 4.17810598 8.97219837 4 12 C1.69 12 -0.62 12 -3 12 C-2.68950274 10.56206608 -2.3765224 9.1246682 -2.0625 7.6875 C-1.88847656 6.88699219 -1.71445312 6.08648437 -1.53515625 5.26171875 C-1 3 -1 3 0 0 Z " fill="#E8E8EC" transform="translate(370,318)"/>
<path d="M0 0 C2.31 0 4.62 0 7 0 C7 0.33 7 0.66 7 1 C5.35 1 3.7 1 2 1 C2 2.32 2 3.64 2 5 C3.32 5 4.64 5 6 5 C6 5.66 6 6.32 6 7 C4.68 7 3.36 7 2 7 C2 8.32 2 9.64 2 11 C3.65 11 5.3 11 7 11 C7 11.33 7 11.66 7 12 C4.69 12 2.38 12 0 12 C0 8.04 0 4.08 0 0 Z " fill="#4BC7F4" transform="translate(321,364)"/>
<path d="M0 0 C0.66 0 1.32 0 2 0 C2.99 2.64 3.98 5.28 5 8 C5.99 5.36 6.98 2.72 8 0 C8.66 0.33 9.32 0.66 10 1 C8.68 4.63 7.36 8.26 6 12 C5.34 12 4.68 12 4 12 C3.3291288 10.3767313 2.66342971 8.75132422 2 7.125 C1.62875 6.22007812 1.2575 5.31515625 0.875 4.3828125 C0 2 0 2 0 0 Z " fill="#49C6F4" transform="translate(196,364)"/>
<path d="M0 0 C2.31 0 4.62 0 7 0 C7 0.33 7 0.66 7 1 C5.35 1 3.7 1 2 1 C2 2.32 2 3.64 2 5 C3.32 5 4.64 5 6 5 C6 5.66 6 6.32 6 7 C4.68 7 3.36 7 2 7 C2 8.65 2 10.3 2 12 C1.34 12 0.68 12 0 12 C0 8.04 0 4.08 0 0 Z " fill="#51C9F4" transform="translate(310,364)"/>
<path d="M0 0 C2.64 0 5.28 0 8 0 C7.01 0.33 6.02 0.66 5 1 C5 4.63 5 8.26 5 12 C4.34 12 3.68 12 3 12 C3 8.7 3 5.4 3 2 C2.01 2 1.02 2 0 2 C0 1.34 0 0.68 0 0 Z " fill="#55CAF5" transform="translate(216,364)"/>
<path d="M0 0 C2.31 0.33 4.62 0.66 7 1 C7.33 2.32 7.66 3.64 8 5 C7.34 4.67 6.68 4.34 6 4 C6 3.34 6 2.68 6 2 C3.52733235 2.34444881 3.52733235 2.34444881 1 3 C0.67 3.66 0.34 4.32 0 5 C-0.66 4.67 -1.32 4.34 -2 4 C-1.34 2.68 -0.68 1.36 0 0 Z " fill="#33BFF3" transform="translate(229,371)"/>
<path d="M0 0 C2.475 0.495 2.475 0.495 5 1 C5 1.99 5 2.98 5 4 C3.35 4 1.7 4 0 4 C0 2.68 0 1.36 0 0 Z " fill="#E1F5FD" transform="translate(173,365)"/>
</svg>
